<?xml version="1.0" encoding="UTF-8" standalone="no"?>
<!DOCTYPE svg PUBLIC "-//W3C//DTD SVG 1.1//EN"
 "http://www.w3.org/Graphics/SVG/1.1/DTD/svg11.dtd">
<!-- Generated by graphviz version 2.47.3 (20210619.1520)
 -->
<!-- Title: dependencies Pages: 1 -->
<svg width="427pt" height="174pt"
 viewBox="0.00 0.00 427.00 173.80" xmlns="http://www.w3.org/2000/svg" xmlns:xlink="http://www.w3.org/1999/xlink">
<g id="graph0" class="graph" transform="scale(1 1) rotate(0) translate(4 169.8)">
<title>dependencies</title>
<polygon fill="white" stroke="transparent" points="-4,4 -4,-169.8 423,-169.8 423,4 -4,4"/>
<text text-anchor="middle" x="209.5" y="-8.2" font-family="sans-serif" font-size="14.00">dependencies</text>
<g id="clust1" class="cluster">
<title>cluster_EntityStoreModule</title>
<polygon fill="none" stroke="black" stroke-dasharray="1,5" points="8,-32.8 8,-157.8 411,-157.8 411,-32.8 8,-32.8"/>
</g>
<g id="clust6" class="cluster">
<title>cluster_EntityStoreModule_providers</title>
<polygon fill="none" stroke="black" points="16,-40.8 16,-92.8 403,-92.8 403,-40.8 16,-40.8"/>
</g>
<!-- DepositDataService -->
<g id="node1" class="node">
<title>DepositDataService</title>
<ellipse fill="#fdb462" stroke="black" cx="307" cy="-66.8" rx="88.02" ry="18"/>
<text text-anchor="middle" x="307" y="-62.6" font-family="Times,serif" font-size="14.00">DepositDataService</text>
</g>
<!-- EntityStoreModule -->
<g id="node3" class="node">
<title>EntityStoreModule</title>
<polygon fill="#8dd3c7" stroke="black" points="270.82,-149.8 267.82,-153.8 246.82,-153.8 243.82,-149.8 147.18,-149.8 147.18,-113.8 270.82,-113.8 270.82,-149.8"/>
<text text-anchor="middle" x="209" y="-127.6" font-family="Times,serif" font-size="14.00">EntityStoreModule</text>
</g>
<!-- DepositDataService&#45;&gt;EntityStoreModule -->
<g id="edge1" class="edge">
<title>DepositDataService&#45;&gt;EntityStoreModule</title>
<path fill="none" stroke="black" d="M244.7,-79.64C244.7,-79.64 244.7,-103.32 244.7,-103.32"/>
<polygon fill="black" stroke="black" points="241.2,-103.32 244.7,-113.32 248.2,-103.32 241.2,-103.32"/>
</g>
<!-- ProductDataService -->
<g id="node2" class="node">
<title>ProductDataService</title>
<ellipse fill="#fdb462" stroke="black" cx="112" cy="-66.8" rx="88.02" ry="18"/>
<text text-anchor="middle" x="112" y="-62.6" font-family="Times,serif" font-size="14.00">ProductDataService</text>
</g>
<!-- ProductDataService&#45;&gt;EntityStoreModule -->
<g id="edge2" class="edge">
<title>ProductDataService&#45;&gt;EntityStoreModule</title>
<path fill="none" stroke="black" d="M173.8,-79.95C173.8,-79.95 173.8,-103.49 173.8,-103.49"/>
<polygon fill="black" stroke="black" points="170.3,-103.49 173.8,-113.49 177.3,-103.49 170.3,-103.49"/>
</g>
</g>
</svg>
