<?xml version="1.0" encoding="UTF-8" standalone="no"?>
<!DOCTYPE svg PUBLIC "-//W3C//DTD SVG 1.1//EN"
 "http://www.w3.org/Graphics/SVG/1.1/DTD/svg11.dtd">
<!-- Generated by graphviz version 2.47.3 (20210619.1520)
 -->
<!-- Title: dependencies Pages: 1 -->
<svg width="3374pt" height="399pt"
 viewBox="0.00 0.00 3374.00 398.80" xmlns="http://www.w3.org/2000/svg" xmlns:xlink="http://www.w3.org/1999/xlink">
<g id="graph0" class="graph" transform="scale(1 1) rotate(0) translate(4 394.8)">
<title>dependencies</title>
<polygon fill="white" stroke="transparent" points="-4,4 -4,-394.8 3370,-394.8 3370,4 -4,4"/>
<text text-anchor="middle" x="1683" y="-8.2" font-family="sans-serif" font-size="14.00">dependencies</text>
<g id="clust1" class="cluster">
<title>cluster_AppModule</title>
<polygon fill="none" stroke="black" stroke-dasharray="1,5" points="266,-184.8 266,-382.8 2323,-382.8 2323,-184.8 266,-184.8"/>
</g>
<g id="clust2" class="cluster">
<title>cluster_AppModule_declarations</title>
<polygon fill="none" stroke="black" points="668,-192.8 668,-244.8 1116,-244.8 1116,-192.8 668,-192.8"/>
</g>
<g id="clust6" class="cluster">
<title>cluster_AppModule_imports</title>
<polygon fill="none" stroke="black" points="274,-192.8 274,-244.8 660,-244.8 660,-192.8 274,-192.8"/>
</g>
<g id="clust8" class="cluster">
<title>cluster_AppModule_bootstrap</title>
<polygon fill="none" stroke="black" points="1128,-322.8 1128,-374.8 1252,-374.8 1252,-322.8 1128,-322.8"/>
</g>
<g id="clust9" class="cluster">
<title>cluster_AppModule_providers</title>
<polygon fill="none" stroke="black" points="1124,-192.8 1124,-244.8 2315,-244.8 2315,-192.8 1124,-192.8"/>
</g>
<g id="clust16" class="cluster">
<title>cluster_AppStoreModule</title>
<polygon fill="none" stroke="black" stroke-dasharray="1,5" points="8,-108.8 8,-176.8 717,-176.8 717,-108.8 8,-108.8"/>
</g>
<g id="clust18" class="cluster">
<title>cluster_AppStoreModule_imports</title>
<polygon fill="none" stroke="black" points="569,-116.8 569,-168.8 709,-168.8 709,-116.8 569,-116.8"/>
</g>
<g id="clust21" class="cluster">
<title>cluster_AppStoreModule_providers</title>
<polygon fill="none" stroke="black" points="16,-116.8 16,-168.8 561,-168.8 561,-116.8 16,-116.8"/>
</g>
<g id="clust22" class="cluster">
<title>cluster_CoreModule</title>
<polygon fill="none" stroke="black" stroke-dasharray="1,5" points="2331,-257.8 2331,-309.8 2433,-309.8 2433,-257.8 2331,-257.8"/>
</g>
<g id="clust28" class="cluster">
<title>cluster_EntityStoreModule</title>
<polygon fill="none" stroke="black" stroke-dasharray="1,5" points="437,-32.8 437,-100.8 840,-100.8 840,-32.8 437,-32.8"/>
</g>
<g id="clust33" class="cluster">
<title>cluster_EntityStoreModule_providers</title>
<polygon fill="none" stroke="black" points="445,-40.8 445,-92.8 832,-92.8 832,-40.8 445,-40.8"/>
</g>
<g id="clust34" class="cluster">
<title>cluster_LoginModule</title>
<polygon fill="none" stroke="black" stroke-dasharray="1,5" points="725,-108.8 725,-176.8 1001,-176.8 1001,-108.8 725,-108.8"/>
</g>
<g id="clust35" class="cluster">
<title>cluster_LoginModule_declarations</title>
<polygon fill="none" stroke="black" points="733,-116.8 733,-168.8 863,-168.8 863,-116.8 733,-116.8"/>
</g>
<g id="clust37" class="cluster">
<title>cluster_LoginModule_imports</title>
<polygon fill="none" stroke="black" points="871,-116.8 871,-168.8 993,-168.8 993,-116.8 871,-116.8"/>
</g>
<g id="clust47" class="cluster">
<title>cluster_ProductModule</title>
<polygon fill="none" stroke="black" stroke-dasharray="1,5" points="2677,-32.8 2677,-168.8 3358,-168.8 3358,-32.8 2677,-32.8"/>
</g>
<g id="clust48" class="cluster">
<title>cluster_ProductModule_declarations</title>
<polygon fill="none" stroke="black" points="2857,-40.8 2857,-92.8 3350,-92.8 3350,-40.8 2857,-40.8"/>
</g>
<g id="clust52" class="cluster">
<title>cluster_ProductModule_imports</title>
<polygon fill="none" stroke="black" points="2685,-40.8 2685,-92.8 2849,-92.8 2849,-40.8 2685,-40.8"/>
</g>
<g id="clust62" class="cluster">
<title>cluster_VendingModule</title>
<polygon fill="none" stroke="black" stroke-dasharray="1,5" points="2331,-108.8 2331,-244.8 2669,-244.8 2669,-108.8 2331,-108.8"/>
</g>
<g id="clust63" class="cluster">
<title>cluster_VendingModule_declarations</title>
<polygon fill="none" stroke="black" points="2515,-116.8 2515,-168.8 2661,-168.8 2661,-116.8 2515,-116.8"/>
</g>
<g id="clust65" class="cluster">
<title>cluster_VendingModule_imports</title>
<polygon fill="none" stroke="black" points="2339,-116.8 2339,-168.8 2507,-168.8 2507,-116.8 2339,-116.8"/>
</g>
<!-- AppComponent -->
<g id="node1" class="node">
<title>AppComponent</title>
<polygon fill="#ffffb3" stroke="black" points="781.94,-236.8 676.06,-236.8 676.06,-200.8 781.94,-200.8 781.94,-236.8"/>
<text text-anchor="middle" x="729" y="-214.6" font-family="Times,serif" font-size="14.00">AppComponent</text>
</g>
<!-- AppModule -->
<g id="node4" class="node">
<title>AppModule</title>
<polygon fill="#8dd3c7" stroke="black" points="1231.66,-301.8 1228.66,-305.8 1207.66,-305.8 1204.66,-301.8 1148.34,-301.8 1148.34,-265.8 1231.66,-265.8 1231.66,-301.8"/>
<text text-anchor="middle" x="1190" y="-279.6" font-family="Times,serif" font-size="14.00">AppModule</text>
</g>
<!-- AppComponent&#45;&gt;AppModule -->
<g id="edge1" class="edge">
<title>AppComponent&#45;&gt;AppModule</title>
<path fill="none" stroke="black" d="M729,-237.02C729,-255.63 729,-281.8 729,-281.8 729,-281.8 1138.28,-281.8 1138.28,-281.8"/>
<polygon fill="black" stroke="black" points="1138.28,-285.3 1148.28,-281.8 1138.28,-278.3 1138.28,-285.3"/>
</g>
<!-- AppFooterComponent -->
<g id="node2" class="node">
<title>AppFooterComponent</title>
<polygon fill="#ffffb3" stroke="black" points="1107.99,-236.8 966.01,-236.8 966.01,-200.8 1107.99,-200.8 1107.99,-236.8"/>
<text text-anchor="middle" x="1037" y="-214.6" font-family="Times,serif" font-size="14.00">AppFooterComponent</text>
</g>
<!-- AppFooterComponent&#45;&gt;AppModule -->
<g id="edge2" class="edge">
<title>AppFooterComponent&#45;&gt;AppModule</title>
<path fill="none" stroke="black" d="M1037,-237.04C1037,-252.37 1037,-271.8 1037,-271.8 1037,-271.8 1138.19,-271.8 1138.19,-271.8"/>
<polygon fill="black" stroke="black" points="1138.19,-275.3 1148.19,-271.8 1138.19,-268.3 1138.19,-275.3"/>
</g>
<!-- AppNavBarComponent -->
<g id="node3" class="node">
<title>AppNavBarComponent</title>
<polygon fill="#ffffb3" stroke="black" points="948.47,-236.8 799.53,-236.8 799.53,-200.8 948.47,-200.8 948.47,-236.8"/>
<text text-anchor="middle" x="874" y="-214.6" font-family="Times,serif" font-size="14.00">AppNavBarComponent</text>
</g>
<!-- AppNavBarComponent&#45;&gt;AppModule -->
<g id="edge3" class="edge">
<title>AppNavBarComponent&#45;&gt;AppModule</title>
<path fill="none" stroke="black" d="M874,-236.83C874,-253.86 874,-276.8 874,-276.8 874,-276.8 1138.04,-276.8 1138.04,-276.8"/>
<polygon fill="black" stroke="black" points="1138.04,-280.3 1148.04,-276.8 1138.04,-273.3 1138.04,-280.3"/>
</g>
<!-- AppComponent  -->
<g id="node8" class="node">
<title>AppComponent </title>
<polygon fill="#80b1d3" stroke="black" points="1244.44,-366.8 1135.56,-366.8 1135.56,-330.8 1244.44,-330.8 1244.44,-366.8"/>
<text text-anchor="middle" x="1190" y="-344.6" font-family="Times,serif" font-size="14.00">AppComponent </text>
</g>
<!-- AppModule&#45;&gt;AppComponent  -->
<g id="edge7" class="edge">
<title>AppModule&#45;&gt;AppComponent </title>
<path fill="none" stroke="black" stroke-dasharray="1,5" d="M1190,-301.91C1190,-301.91 1190,-320.79 1190,-320.79"/>
<polygon fill="black" stroke="black" points="1186.5,-320.79 1190,-330.79 1193.5,-320.79 1186.5,-320.79"/>
</g>
<!-- AppRoutingModule -->
<g id="node5" class="node">
<title>AppRoutingModule</title>
<polygon fill="#8dd3c7" stroke="black" points="410.27,-236.8 407.27,-240.8 386.27,-240.8 383.27,-236.8 281.73,-236.8 281.73,-200.8 410.27,-200.8 410.27,-236.8"/>
<text text-anchor="middle" x="346" y="-214.6" font-family="Times,serif" font-size="14.00">AppRoutingModule</text>
</g>
<!-- AppRoutingModule&#45;&gt;AppModule -->
<g id="edge4" class="edge">
<title>AppRoutingModule&#45;&gt;AppModule</title>
<path fill="none" stroke="black" d="M346,-236.89C346,-259.93 346,-296.8 346,-296.8 346,-296.8 1138.15,-296.8 1138.15,-296.8"/>
<polygon fill="black" stroke="black" points="1138.15,-300.3 1148.15,-296.8 1138.15,-293.3 1138.15,-300.3"/>
</g>
<!-- AppStoreModule -->
<g id="node6" class="node">
<title>AppStoreModule</title>
<polygon fill="#8dd3c7" stroke="black" points="541.7,-236.8 538.7,-240.8 517.7,-240.8 514.7,-236.8 428.3,-236.8 428.3,-200.8 541.7,-200.8 541.7,-236.8"/>
<text text-anchor="middle" x="485" y="-214.6" font-family="Times,serif" font-size="14.00">AppStoreModule</text>
</g>
<!-- AppStoreModule&#45;&gt;AppModule -->
<g id="edge5" class="edge">
<title>AppStoreModule&#45;&gt;AppModule</title>
<path fill="none" stroke="black" d="M485,-236.84C485,-258.46 485,-291.8 485,-291.8 485,-291.8 1138.27,-291.8 1138.27,-291.8"/>
<polygon fill="black" stroke="black" points="1138.27,-295.3 1148.27,-291.8 1138.27,-288.3 1138.27,-295.3"/>
</g>
<!-- LoginModule -->
<g id="node7" class="node">
<title>LoginModule</title>
<polygon fill="#8dd3c7" stroke="black" points="652.49,-236.8 649.49,-240.8 628.49,-240.8 625.49,-236.8 559.51,-236.8 559.51,-200.8 652.49,-200.8 652.49,-236.8"/>
<text text-anchor="middle" x="606" y="-214.6" font-family="Times,serif" font-size="14.00">LoginModule</text>
</g>
<!-- LoginModule&#45;&gt;AppModule -->
<g id="edge6" class="edge">
<title>LoginModule&#45;&gt;AppModule</title>
<path fill="none" stroke="black" d="M606,-237.02C606,-257.17 606,-286.8 606,-286.8 606,-286.8 1138,-286.8 1138,-286.8"/>
<polygon fill="black" stroke="black" points="1138,-290.3 1148,-286.8 1138,-283.3 1138,-290.3"/>
</g>
<!-- ApiService -->
<g id="node9" class="node">
<title>ApiService</title>
<ellipse fill="#fdb462" stroke="black" cx="1321" cy="-218.8" rx="54.45" ry="18"/>
<text text-anchor="middle" x="1321" y="-214.6" font-family="Times,serif" font-size="14.00">ApiService</text>
</g>
<!-- ApiService&#45;&gt;AppModule -->
<g id="edge8" class="edge">
<title>ApiService&#45;&gt;AppModule</title>
<path fill="none" stroke="black" d="M1321,-236.83C1321,-253.2 1321,-274.8 1321,-274.8 1321,-274.8 1241.81,-274.8 1241.81,-274.8"/>
<polygon fill="black" stroke="black" points="1241.81,-271.3 1231.81,-274.8 1241.81,-278.3 1241.81,-271.3"/>
</g>
<!-- AppClientHttpInterceptor -->
<g id="node10" class="node">
<title>AppClientHttpInterceptor</title>
<ellipse fill="#fdb462" stroke="black" cx="1998" cy="-218.8" rx="110.59" ry="18"/>
<text text-anchor="middle" x="1998" y="-214.6" font-family="Times,serif" font-size="14.00">AppClientHttpInterceptor</text>
</g>
<!-- AppClientHttpInterceptor&#45;&gt;AppModule -->
<g id="edge9" class="edge">
<title>AppClientHttpInterceptor&#45;&gt;AppModule</title>
<path fill="none" stroke="black" d="M1961.07,-235.96C1961.07,-257.82 1961.07,-292.8 1961.07,-292.8 1961.07,-292.8 1241.73,-292.8 1241.73,-292.8"/>
<polygon fill="black" stroke="black" points="1241.73,-289.3 1231.73,-292.8 1241.73,-296.3 1241.73,-289.3"/>
</g>
<!-- CoreModule -->
<g id="node20" class="node">
<title>CoreModule</title>
<polygon fill="#8dd3c7" stroke="black" points="2425.26,-301.8 2422.26,-305.8 2401.26,-305.8 2398.26,-301.8 2338.74,-301.8 2338.74,-265.8 2425.26,-265.8 2425.26,-301.8"/>
<text text-anchor="middle" x="2382" y="-279.6" font-family="Times,serif" font-size="14.00">CoreModule</text>
</g>
<!-- AppClientHttpInterceptor&#45;&gt;CoreModule -->
<g id="edge19" class="edge">
<title>AppClientHttpInterceptor&#45;&gt;CoreModule</title>
<path fill="none" stroke="black" d="M2034.93,-235.83C2034.93,-250.99 2034.93,-270.8 2034.93,-270.8 2034.93,-270.8 2328.4,-270.8 2328.4,-270.8"/>
<polygon fill="black" stroke="black" points="2328.4,-274.3 2338.4,-270.8 2328.39,-267.3 2328.4,-274.3"/>
</g>
<!-- AppErrorInterceptor -->
<g id="node11" class="node">
<title>AppErrorInterceptor</title>
<ellipse fill="#fdb462" stroke="black" cx="2217" cy="-218.8" rx="90.29" ry="18"/>
<text text-anchor="middle" x="2217" y="-214.6" font-family="Times,serif" font-size="14.00">AppErrorInterceptor</text>
</g>
<!-- AppErrorInterceptor&#45;&gt;AppModule -->
<g id="edge10" class="edge">
<title>AppErrorInterceptor&#45;&gt;AppModule</title>
<path fill="none" stroke="black" d="M2217,-237.12C2217,-260.46 2217,-297.8 2217,-297.8 2217,-297.8 1241.85,-297.8 1241.85,-297.8"/>
<polygon fill="black" stroke="black" points="1241.85,-294.3 1231.85,-297.8 1241.85,-301.3 1241.85,-294.3"/>
</g>
<!-- AppErrorInterceptor&#45;&gt;CoreModule -->
<g id="edge20" class="edge">
<title>AppErrorInterceptor&#45;&gt;CoreModule</title>
<path fill="none" stroke="black" d="M2302.51,-224.8C2324.74,-224.8 2342.59,-224.8 2342.59,-224.8 2342.59,-224.8 2342.59,-255.78 2342.59,-255.78"/>
<polygon fill="black" stroke="black" points="2339.09,-255.78 2342.59,-265.78 2346.09,-255.78 2339.09,-255.78"/>
</g>
<!-- AppHttpHeaders -->
<g id="node12" class="node">
<title>AppHttpHeaders</title>
<ellipse fill="#fdb462" stroke="black" cx="1628" cy="-218.8" rx="76.42" ry="18"/>
<text text-anchor="middle" x="1628" y="-214.6" font-family="Times,serif" font-size="14.00">AppHttpHeaders</text>
</g>
<!-- AppHttpHeaders&#45;&gt;AppModule -->
<g id="edge11" class="edge">
<title>AppHttpHeaders&#45;&gt;AppModule</title>
<path fill="none" stroke="black" d="M1628,-236.91C1628,-256.14 1628,-283.8 1628,-283.8 1628,-283.8 1242,-283.8 1242,-283.8"/>
<polygon fill="black" stroke="black" points="1242,-280.3 1232,-283.8 1242,-287.3 1242,-280.3"/>
</g>
<!-- ProductService -->
<g id="node13" class="node">
<title>ProductService</title>
<ellipse fill="#fdb462" stroke="black" cx="1464" cy="-218.8" rx="70.06" ry="18"/>
<text text-anchor="middle" x="1464" y="-214.6" font-family="Times,serif" font-size="14.00">ProductService</text>
</g>
<!-- ProductService&#45;&gt;AppModule -->
<g id="edge12" class="edge">
<title>ProductService&#45;&gt;AppModule</title>
<path fill="none" stroke="black" d="M1464,-237.1C1464,-255.07 1464,-279.8 1464,-279.8 1464,-279.8 1241.91,-279.8 1241.91,-279.8"/>
<polygon fill="black" stroke="black" points="1241.91,-276.3 1231.91,-279.8 1241.91,-283.3 1241.91,-276.3"/>
</g>
<!-- UserService -->
<g id="node14" class="node">
<title>UserService</title>
<ellipse fill="#fdb462" stroke="black" cx="1190" cy="-218.8" rx="58.44" ry="18"/>
<text text-anchor="middle" x="1190" y="-214.6" font-family="Times,serif" font-size="14.00">UserService</text>
</g>
<!-- UserService&#45;&gt;AppModule -->
<g id="edge13" class="edge">
<title>UserService&#45;&gt;AppModule</title>
<path fill="none" stroke="black" d="M1190,-236.91C1190,-236.91 1190,-255.79 1190,-255.79"/>
<polygon fill="black" stroke="black" points="1186.5,-255.79 1190,-265.79 1193.5,-255.79 1186.5,-255.79"/>
</g>
<!-- VendingService -->
<g id="node15" class="node">
<title>VendingService</title>
<ellipse fill="#fdb462" stroke="black" cx="1796" cy="-218.8" rx="73.5" ry="18"/>
<text text-anchor="middle" x="1796" y="-214.6" font-family="Times,serif" font-size="14.00">VendingService</text>
</g>
<!-- VendingService&#45;&gt;AppModule -->
<g id="edge14" class="edge">
<title>VendingService&#45;&gt;AppModule</title>
<path fill="none" stroke="black" d="M1796,-236.83C1796,-257.57 1796,-288.8 1796,-288.8 1796,-288.8 1242.13,-288.8 1242.13,-288.8"/>
<polygon fill="black" stroke="black" points="1242.13,-285.3 1232.13,-288.8 1242.13,-292.3 1242.13,-285.3"/>
</g>
<!-- EntityStoreModule -->
<g id="node16" class="node">
<title>EntityStoreModule</title>
<polygon fill="#8dd3c7" stroke="black" points="700.82,-160.8 697.82,-164.8 676.82,-164.8 673.82,-160.8 577.18,-160.8 577.18,-124.8 700.82,-124.8 700.82,-160.8"/>
<text text-anchor="middle" x="639" y="-138.6" font-family="Times,serif" font-size="14.00">EntityStoreModule</text>
</g>
<!-- EntityStoreModule&#45;&gt;AppStoreModule -->
<g id="edge15" class="edge">
<title>EntityStoreModule&#45;&gt;AppStoreModule</title>
<path fill="none" stroke="black" d="M596.13,-160.91C596.13,-170.7 596.13,-180.8 596.13,-180.8 596.13,-180.8 518.96,-180.8 518.96,-180.8 518.96,-180.8 518.96,-190.69 518.96,-190.69"/>
<polygon fill="black" stroke="black" points="515.46,-190.69 518.96,-200.69 522.46,-190.69 515.46,-190.69"/>
</g>
<!-- DepositEffects -->
<g id="node17" class="node">
<title>DepositEffects</title>
<ellipse fill="#fdb462" stroke="black" cx="485" cy="-142.8" rx="68.33" ry="18"/>
<text text-anchor="middle" x="485" y="-138.6" font-family="Times,serif" font-size="14.00">DepositEffects</text>
</g>
<!-- DepositEffects&#45;&gt;AppStoreModule -->
<g id="edge16" class="edge">
<title>DepositEffects&#45;&gt;AppStoreModule</title>
<path fill="none" stroke="black" d="M496.32,-160.81C496.32,-160.81 496.32,-190.65 496.32,-190.65"/>
<polygon fill="black" stroke="black" points="492.82,-190.65 496.32,-200.65 499.82,-190.65 492.82,-190.65"/>
</g>
<!-- ProductEffects -->
<g id="node18" class="node">
<title>ProductEffects</title>
<ellipse fill="#fdb462" stroke="black" cx="330" cy="-142.8" rx="68.33" ry="18"/>
<text text-anchor="middle" x="330" y="-138.6" font-family="Times,serif" font-size="14.00">ProductEffects</text>
</g>
<!-- ProductEffects&#45;&gt;AppStoreModule -->
<g id="edge17" class="edge">
<title>ProductEffects&#45;&gt;AppStoreModule</title>
<path fill="none" stroke="black" d="M340.02,-160.7C340.02,-164.71 340.02,-167.8 340.02,-167.8 340.02,-167.8 473.68,-167.8 473.68,-167.8 473.68,-167.8 473.68,-190.68 473.68,-190.68"/>
<polygon fill="black" stroke="black" points="470.18,-190.68 473.68,-200.68 477.18,-190.68 470.18,-190.68"/>
</g>
<!-- ProductPaginationEffects -->
<g id="node19" class="node">
<title>ProductPaginationEffects</title>
<ellipse fill="#fdb462" stroke="black" cx="134" cy="-142.8" rx="109.95" ry="18"/>
<text text-anchor="middle" x="134" y="-138.6" font-family="Times,serif" font-size="14.00">ProductPaginationEffects</text>
</g>
<!-- ProductPaginationEffects&#45;&gt;AppStoreModule -->
<g id="edge18" class="edge">
<title>ProductPaginationEffects&#45;&gt;AppStoreModule</title>
<path fill="none" stroke="black" d="M134,-161.04C134,-168.23 134,-174.8 134,-174.8 134,-174.8 451.04,-174.8 451.04,-174.8 451.04,-174.8 451.04,-190.65 451.04,-190.65"/>
<polygon fill="black" stroke="black" points="447.54,-190.65 451.04,-200.65 454.54,-190.65 447.54,-190.65"/>
</g>
<!-- DepositDataService -->
<g id="node21" class="node">
<title>DepositDataService</title>
<ellipse fill="#fdb462" stroke="black" cx="736" cy="-66.8" rx="88.02" ry="18"/>
<text text-anchor="middle" x="736" y="-62.6" font-family="Times,serif" font-size="14.00">DepositDataService</text>
</g>
<!-- DepositDataService&#45;&gt;EntityStoreModule -->
<g id="edge21" class="edge">
<title>DepositDataService&#45;&gt;EntityStoreModule</title>
<path fill="none" stroke="black" d="M674.2,-79.69C674.2,-79.69 674.2,-114.71 674.2,-114.71"/>
<polygon fill="black" stroke="black" points="670.7,-114.71 674.2,-124.71 677.7,-114.71 670.7,-114.71"/>
</g>
<!-- ProductDataService -->
<g id="node22" class="node">
<title>ProductDataService</title>
<ellipse fill="#fdb462" stroke="black" cx="541" cy="-66.8" rx="88.02" ry="18"/>
<text text-anchor="middle" x="541" y="-62.6" font-family="Times,serif" font-size="14.00">ProductDataService</text>
</g>
<!-- ProductDataService&#45;&gt;EntityStoreModule -->
<g id="edge22" class="edge">
<title>ProductDataService&#45;&gt;EntityStoreModule</title>
<path fill="none" stroke="black" d="M603.3,-79.69C603.3,-79.69 603.3,-114.71 603.3,-114.71"/>
<polygon fill="black" stroke="black" points="599.8,-114.71 603.3,-124.71 606.8,-114.71 599.8,-114.71"/>
</g>
<!-- LoginComponent -->
<g id="node23" class="node">
<title>LoginComponent</title>
<polygon fill="#ffffb3" stroke="black" points="855.28,-160.8 740.72,-160.8 740.72,-124.8 855.28,-124.8 855.28,-160.8"/>
<text text-anchor="middle" x="798" y="-138.6" font-family="Times,serif" font-size="14.00">LoginComponent</text>
</g>
<!-- LoginComponent&#45;&gt;LoginModule -->
<g id="edge23" class="edge">
<title>LoginComponent&#45;&gt;LoginModule</title>
<path fill="none" stroke="black" d="M761.17,-160.84C761.17,-173.36 761.17,-187.8 761.17,-187.8 761.17,-187.8 614.92,-187.8 614.92,-187.8 614.92,-187.8 614.92,-190.77 614.92,-190.77"/>
<polygon fill="black" stroke="black" points="611.42,-190.77 614.92,-200.77 618.42,-190.77 611.42,-190.77"/>
</g>
<!-- MaterialModule -->
<g id="node24" class="node">
<title>MaterialModule</title>
<polygon fill="#8dd3c7" stroke="black" points="985.47,-160.8 982.47,-164.8 961.47,-164.8 958.47,-160.8 878.53,-160.8 878.53,-124.8 985.47,-124.8 985.47,-160.8"/>
<text text-anchor="middle" x="932" y="-138.6" font-family="Times,serif" font-size="14.00">MaterialModule</text>
</g>
<!-- MaterialModule&#45;&gt;LoginModule -->
<g id="edge24" class="edge">
<title>MaterialModule&#45;&gt;LoginModule</title>
<path fill="none" stroke="black" d="M913.5,-160.99C913.5,-175.98 913.5,-194.8 913.5,-194.8 913.5,-194.8 633.71,-194.8 633.71,-194.8 633.71,-194.8 633.71,-195.38 633.71,-195.38"/>
<polygon fill="black" stroke="black" points="630.21,-190.61 633.71,-200.61 637.21,-190.61 630.21,-190.61"/>
</g>
<!-- VendingModule -->
<g id="node31" class="node">
<title>VendingModule</title>
<polygon fill="#8dd3c7" stroke="black" points="2476.76,-236.8 2473.76,-240.8 2452.76,-240.8 2449.76,-236.8 2369.24,-236.8 2369.24,-200.8 2476.76,-200.8 2476.76,-236.8"/>
<text text-anchor="middle" x="2423" y="-214.6" font-family="Times,serif" font-size="14.00">VendingModule</text>
</g>
<!-- MaterialModule&#45;&gt;VendingModule -->
<g id="edge30" class="edge">
<title>MaterialModule&#45;&gt;VendingModule</title>
<path fill="none" stroke="black" d="M985.68,-142.8C1241.31,-142.8 2323.01,-142.8 2323.01,-142.8 2323.01,-142.8 2323.01,-212.8 2323.01,-212.8 2323.01,-212.8 2359.2,-212.8 2359.2,-212.8"/>
<polygon fill="black" stroke="black" points="2359.2,-216.3 2369.2,-212.8 2359.2,-209.3 2359.2,-216.3"/>
</g>
<!-- ProductComponent -->
<g id="node25" class="node">
<title>ProductComponent</title>
<polygon fill="#ffffb3" stroke="black" points="3342.38,-84.8 3217.62,-84.8 3217.62,-48.8 3342.38,-48.8 3342.38,-84.8"/>
<text text-anchor="middle" x="3280" y="-62.6" font-family="Times,serif" font-size="14.00">ProductComponent</text>
</g>
<!-- ProductModule -->
<g id="node28" class="node">
<title>ProductModule</title>
<polygon fill="#8dd3c7" stroke="black" points="3082.6,-160.8 3079.6,-164.8 3058.6,-164.8 3055.6,-160.8 2979.4,-160.8 2979.4,-124.8 3082.6,-124.8 3082.6,-160.8"/>
<text text-anchor="middle" x="3031" y="-138.6" font-family="Times,serif" font-size="14.00">ProductModule</text>
</g>
<!-- ProductComponent&#45;&gt;ProductModule -->
<g id="edge25" class="edge">
<title>ProductComponent&#45;&gt;ProductModule</title>
<path fill="none" stroke="black" d="M3280,-84.81C3280,-107.29 3280,-142.8 3280,-142.8 3280,-142.8 3092.59,-142.8 3092.59,-142.8"/>
<polygon fill="black" stroke="black" points="3092.59,-139.3 3082.59,-142.8 3092.59,-146.3 3092.59,-139.3"/>
</g>
<!-- ProductFormsComponent -->
<g id="node26" class="node">
<title>ProductFormsComponent</title>
<polygon fill="#ffffb3" stroke="black" points="3199.16,-84.8 3038.84,-84.8 3038.84,-48.8 3199.16,-48.8 3199.16,-84.8"/>
<text text-anchor="middle" x="3119" y="-62.6" font-family="Times,serif" font-size="14.00">ProductFormsComponent</text>
</g>
<!-- ProductFormsComponent&#45;&gt;ProductModule -->
<g id="edge26" class="edge">
<title>ProductFormsComponent&#45;&gt;ProductModule</title>
<path fill="none" stroke="black" d="M3060.61,-84.81C3060.61,-84.81 3060.61,-114.65 3060.61,-114.65"/>
<polygon fill="black" stroke="black" points="3057.11,-114.65 3060.61,-124.65 3064.11,-114.65 3057.11,-114.65"/>
</g>
<!-- ProductViewComponent -->
<g id="node27" class="node">
<title>ProductViewComponent</title>
<polygon fill="#ffffb3" stroke="black" points="3020.7,-84.8 2865.3,-84.8 2865.3,-48.8 3020.7,-48.8 3020.7,-84.8"/>
<text text-anchor="middle" x="2943" y="-62.6" font-family="Times,serif" font-size="14.00">ProductViewComponent</text>
</g>
<!-- ProductViewComponent&#45;&gt;ProductModule -->
<g id="edge27" class="edge">
<title>ProductViewComponent&#45;&gt;ProductModule</title>
<path fill="none" stroke="black" d="M3000.03,-84.81C3000.03,-84.81 3000.03,-114.65 3000.03,-114.65"/>
<polygon fill="black" stroke="black" points="2996.53,-114.65 3000.03,-124.65 3003.53,-114.65 2996.53,-114.65"/>
</g>
<!-- ProductRoutingModule -->
<g id="node29" class="node">
<title>ProductRoutingModule</title>
<polygon fill="#8dd3c7" stroke="black" points="2841.22,-84.8 2838.22,-88.8 2817.22,-88.8 2814.22,-84.8 2692.78,-84.8 2692.78,-48.8 2841.22,-48.8 2841.22,-84.8"/>
<text text-anchor="middle" x="2767" y="-62.6" font-family="Times,serif" font-size="14.00">ProductRoutingModule</text>
</g>
<!-- ProductRoutingModule&#45;&gt;ProductModule -->
<g id="edge28" class="edge">
<title>ProductRoutingModule&#45;&gt;ProductModule</title>
<path fill="none" stroke="black" d="M2767,-84.81C2767,-107.29 2767,-142.8 2767,-142.8 2767,-142.8 2969.16,-142.8 2969.16,-142.8"/>
<polygon fill="black" stroke="black" points="2969.16,-146.3 2979.16,-142.8 2969.16,-139.3 2969.16,-146.3"/>
</g>
<!-- VendingComponent -->
<g id="node30" class="node">
<title>VendingComponent</title>
<polygon fill="#ffffb3" stroke="black" points="2652.54,-160.8 2523.46,-160.8 2523.46,-124.8 2652.54,-124.8 2652.54,-160.8"/>
<text text-anchor="middle" x="2588" y="-138.6" font-family="Times,serif" font-size="14.00">VendingComponent</text>
</g>
<!-- VendingComponent&#45;&gt;VendingModule -->
<g id="edge29" class="edge">
<title>VendingComponent&#45;&gt;VendingModule</title>
<path fill="none" stroke="black" d="M2588,-160.81C2588,-183.29 2588,-218.8 2588,-218.8 2588,-218.8 2487.03,-218.8 2487.03,-218.8"/>
<polygon fill="black" stroke="black" points="2487.03,-215.3 2477.03,-218.8 2487.03,-222.3 2487.03,-215.3"/>
</g>
<!-- VendingRoutingModule -->
<g id="node32" class="node">
<title>VendingRoutingModule</title>
<polygon fill="#8dd3c7" stroke="black" points="2499.38,-160.8 2496.38,-164.8 2475.38,-164.8 2472.38,-160.8 2346.62,-160.8 2346.62,-124.8 2499.38,-124.8 2499.38,-160.8"/>
<text text-anchor="middle" x="2423" y="-138.6" font-family="Times,serif" font-size="14.00">VendingRoutingModule</text>
</g>
<!-- VendingRoutingModule&#45;&gt;VendingModule -->
<g id="edge31" class="edge">
<title>VendingRoutingModule&#45;&gt;VendingModule</title>
<path fill="none" stroke="black" d="M2423,-160.81C2423,-160.81 2423,-190.65 2423,-190.65"/>
<polygon fill="black" stroke="black" points="2419.5,-190.65 2423,-200.65 2426.5,-190.65 2419.5,-190.65"/>
</g>
</g>
</svg>
