<?xml version="1.0" encoding="UTF-8" standalone="no"?>
<!DOCTYPE svg PUBLIC "-//W3C//DTD SVG 1.1//EN"
 "http://www.w3.org/Graphics/SVG/1.1/DTD/svg11.dtd">
<!-- Generated by graphviz version 2.47.3 (20210619.1520)
 -->
<!-- Title: dependencies Pages: 1 -->
<svg width="476pt" height="174pt"
 viewBox="0.00 0.00 476.00 173.80" xmlns="http://www.w3.org/2000/svg" xmlns:xlink="http://www.w3.org/1999/xlink">
<g id="graph0" class="graph" transform="scale(1 1) rotate(0) translate(4 169.8)">
<title>dependencies</title>
<polygon fill="white" stroke="transparent" points="-4,4 -4,-169.8 472,-169.8 472,4 -4,4"/>
<text text-anchor="middle" x="234" y="-8.2" font-family="sans-serif" font-size="14.00">dependencies</text>
<g id="clust1" class="cluster">
<title>cluster_CoreModule</title>
<polygon fill="none" stroke="black" stroke-dasharray="1,5" points="8,-32.8 8,-157.8 460,-157.8 460,-32.8 8,-32.8"/>
</g>
<g id="clust6" class="cluster">
<title>cluster_CoreModule_providers</title>
<polygon fill="none" stroke="black" points="16,-40.8 16,-92.8 452,-92.8 452,-40.8 16,-40.8"/>
</g>
<!-- AppClientHttpInterceptor -->
<g id="node1" class="node">
<title>AppClientHttpInterceptor</title>
<ellipse fill="#fdb462" stroke="black" cx="333" cy="-66.8" rx="110.59" ry="18"/>
<text text-anchor="middle" x="333" y="-62.6" font-family="Times,serif" font-size="14.00">AppClientHttpInterceptor</text>
</g>
<!-- CoreModule -->
<g id="node3" class="node">
<title>CoreModule</title>
<polygon fill="#8dd3c7" stroke="black" points="266.26,-149.8 263.26,-153.8 242.26,-153.8 239.26,-149.8 179.74,-149.8 179.74,-113.8 266.26,-113.8 266.26,-149.8"/>
<text text-anchor="middle" x="223" y="-127.6" font-family="Times,serif" font-size="14.00">CoreModule</text>
</g>
<!-- AppClientHttpInterceptor&#45;&gt;CoreModule -->
<g id="edge1" class="edge">
<title>AppClientHttpInterceptor&#45;&gt;CoreModule</title>
<path fill="none" stroke="black" d="M244.29,-77.83C244.29,-77.83 244.29,-103.58 244.29,-103.58"/>
<polygon fill="black" stroke="black" points="240.79,-103.58 244.29,-113.58 247.79,-103.58 240.79,-103.58"/>
</g>
<!-- AppErrorInterceptor -->
<g id="node2" class="node">
<title>AppErrorInterceptor</title>
<ellipse fill="#fdb462" stroke="black" cx="114" cy="-66.8" rx="90.29" ry="18"/>
<text text-anchor="middle" x="114" y="-62.6" font-family="Times,serif" font-size="14.00">AppErrorInterceptor</text>
</g>
<!-- AppErrorInterceptor&#45;&gt;CoreModule -->
<g id="edge2" class="edge">
<title>AppErrorInterceptor&#45;&gt;CoreModule</title>
<path fill="none" stroke="black" d="M192.01,-76.11C192.01,-76.11 192.01,-103.65 192.01,-103.65"/>
<polygon fill="black" stroke="black" points="188.51,-103.65 192.01,-113.65 195.51,-103.65 188.51,-103.65"/>
</g>
</g>
</svg>
