<?xml version="1.0" encoding="UTF-8" standalone="no"?>
<!DOCTYPE svg PUBLIC "-//W3C//DTD SVG 1.1//EN"
 "http://www.w3.org/Graphics/SVG/1.1/DTD/svg11.dtd">
<!-- Generated by graphviz version 2.47.3 (20210619.1520)
 -->
<!-- Title: dependencies Pages: 1 -->
<svg width="705pt" height="174pt"
 viewBox="0.00 0.00 705.00 173.80" xmlns="http://www.w3.org/2000/svg" xmlns:xlink="http://www.w3.org/1999/xlink">
<g id="graph0" class="graph" transform="scale(1 1) rotate(0) translate(4 169.8)">
<title>dependencies</title>
<polygon fill="white" stroke="transparent" points="-4,4 -4,-169.8 701,-169.8 701,4 -4,4"/>
<text text-anchor="middle" x="348.5" y="-8.2" font-family="sans-serif" font-size="14.00">dependencies</text>
<g id="clust1" class="cluster">
<title>cluster_ProductModule</title>
<polygon fill="none" stroke="black" stroke-dasharray="1,5" points="8,-32.8 8,-157.8 689,-157.8 689,-32.8 8,-32.8"/>
</g>
<g id="clust6" class="cluster">
<title>cluster_ProductModule_imports</title>
<polygon fill="none" stroke="black" points="517,-40.8 517,-92.8 681,-92.8 681,-40.8 517,-40.8"/>
</g>
<g id="clust2" class="cluster">
<title>cluster_ProductModule_declarations</title>
<polygon fill="none" stroke="black" points="16,-40.8 16,-92.8 509,-92.8 509,-40.8 16,-40.8"/>
</g>
<!-- ProductComponent -->
<g id="node1" class="node">
<title>ProductComponent</title>
<polygon fill="#ffffb3" stroke="black" points="501.38,-84.8 376.62,-84.8 376.62,-48.8 501.38,-48.8 501.38,-84.8"/>
<text text-anchor="middle" x="439" y="-62.6" font-family="Times,serif" font-size="14.00">ProductComponent</text>
</g>
<!-- ProductModule -->
<g id="node4" class="node">
<title>ProductModule</title>
<polygon fill="#8dd3c7" stroke="black" points="409.6,-149.8 406.6,-153.8 385.6,-153.8 382.6,-149.8 306.4,-149.8 306.4,-113.8 409.6,-113.8 409.6,-149.8"/>
<text text-anchor="middle" x="358" y="-127.6" font-family="Times,serif" font-size="14.00">ProductModule</text>
</g>
<!-- ProductComponent&#45;&gt;ProductModule -->
<g id="edge1" class="edge">
<title>ProductComponent&#45;&gt;ProductModule</title>
<path fill="none" stroke="black" d="M393.05,-84.91C393.05,-84.91 393.05,-103.79 393.05,-103.79"/>
<polygon fill="black" stroke="black" points="389.55,-103.79 393.05,-113.79 396.55,-103.79 389.55,-103.79"/>
</g>
<!-- ProductFormsComponent -->
<g id="node2" class="node">
<title>ProductFormsComponent</title>
<polygon fill="#ffffb3" stroke="black" points="358.16,-84.8 197.84,-84.8 197.84,-48.8 358.16,-48.8 358.16,-84.8"/>
<text text-anchor="middle" x="278" y="-62.6" font-family="Times,serif" font-size="14.00">ProductFormsComponent</text>
</g>
<!-- ProductFormsComponent&#45;&gt;ProductModule -->
<g id="edge2" class="edge">
<title>ProductFormsComponent&#45;&gt;ProductModule</title>
<path fill="none" stroke="black" d="M332.39,-84.91C332.39,-84.91 332.39,-103.79 332.39,-103.79"/>
<polygon fill="black" stroke="black" points="328.89,-103.79 332.39,-113.79 335.89,-103.79 328.89,-103.79"/>
</g>
<!-- ProductViewComponent -->
<g id="node3" class="node">
<title>ProductViewComponent</title>
<polygon fill="#ffffb3" stroke="black" points="179.7,-84.8 24.3,-84.8 24.3,-48.8 179.7,-48.8 179.7,-84.8"/>
<text text-anchor="middle" x="102" y="-62.6" font-family="Times,serif" font-size="14.00">ProductViewComponent</text>
</g>
<!-- ProductViewComponent&#45;&gt;ProductModule -->
<g id="edge3" class="edge">
<title>ProductViewComponent&#45;&gt;ProductModule</title>
<path fill="none" stroke="black" d="M102,-84.91C102,-104.14 102,-131.8 102,-131.8 102,-131.8 296.19,-131.8 296.19,-131.8"/>
<polygon fill="black" stroke="black" points="296.19,-135.3 306.19,-131.8 296.19,-128.3 296.19,-135.3"/>
</g>
<!-- ProductRoutingModule -->
<g id="node5" class="node">
<title>ProductRoutingModule</title>
<polygon fill="#8dd3c7" stroke="black" points="673.22,-84.8 670.22,-88.8 649.22,-88.8 646.22,-84.8 524.78,-84.8 524.78,-48.8 673.22,-48.8 673.22,-84.8"/>
<text text-anchor="middle" x="599" y="-62.6" font-family="Times,serif" font-size="14.00">ProductRoutingModule</text>
</g>
<!-- ProductRoutingModule&#45;&gt;ProductModule -->
<g id="edge4" class="edge">
<title>ProductRoutingModule&#45;&gt;ProductModule</title>
<path fill="none" stroke="black" d="M599,-84.91C599,-104.14 599,-131.8 599,-131.8 599,-131.8 419.7,-131.8 419.7,-131.8"/>
<polygon fill="black" stroke="black" points="419.7,-128.3 409.7,-131.8 419.7,-135.3 419.7,-128.3"/>
</g>
</g>
</svg>
