<?xml version="1.0" encoding="UTF-8" standalone="no"?>
<!DOCTYPE svg PUBLIC "-//W3C//DTD SVG 1.1//EN"
 "http://www.w3.org/Graphics/SVG/1.1/DTD/svg11.dtd">
<!-- Generated by graphviz version 2.47.3 (20210619.1520)
 -->
<!-- Title: dependencies Pages: 1 -->
<svg width="487pt" height="174pt"
 viewBox="0.00 0.00 487.00 173.80" xmlns="http://www.w3.org/2000/svg" xmlns:xlink="http://www.w3.org/1999/xlink">
<g id="graph0" class="graph" transform="scale(1 1) rotate(0) translate(4 169.8)">
<title>dependencies</title>
<polygon fill="white" stroke="transparent" points="-4,4 -4,-169.8 483,-169.8 483,4 -4,4"/>
<text text-anchor="middle" x="239.5" y="-8.2" font-family="sans-serif" font-size="14.00">dependencies</text>
<g id="clust1" class="cluster">
<title>cluster_VendingModule</title>
<polygon fill="none" stroke="black" stroke-dasharray="1,5" points="8,-32.8 8,-157.8 471,-157.8 471,-32.8 8,-32.8"/>
</g>
<g id="clust4" class="cluster">
<title>cluster_VendingModule_imports</title>
<polygon fill="none" stroke="black" points="170,-40.8 170,-92.8 463,-92.8 463,-40.8 170,-40.8"/>
</g>
<g id="clust2" class="cluster">
<title>cluster_VendingModule_declarations</title>
<polygon fill="none" stroke="black" points="16,-40.8 16,-92.8 162,-92.8 162,-40.8 16,-40.8"/>
</g>
<!-- VendingComponent -->
<g id="node1" class="node">
<title>VendingComponent</title>
<polygon fill="#ffffb3" stroke="black" points="153.54,-84.8 24.46,-84.8 24.46,-48.8 153.54,-48.8 153.54,-84.8"/>
<text text-anchor="middle" x="89" y="-62.6" font-family="Times,serif" font-size="14.00">VendingComponent</text>
</g>
<!-- VendingModule -->
<g id="node2" class="node">
<title>VendingModule</title>
<polygon fill="#8dd3c7" stroke="black" points="307.76,-149.8 304.76,-153.8 283.76,-153.8 280.76,-149.8 200.24,-149.8 200.24,-113.8 307.76,-113.8 307.76,-149.8"/>
<text text-anchor="middle" x="254" y="-127.6" font-family="Times,serif" font-size="14.00">VendingModule</text>
</g>
<!-- VendingComponent&#45;&gt;VendingModule -->
<g id="edge1" class="edge">
<title>VendingComponent&#45;&gt;VendingModule</title>
<path fill="none" stroke="black" d="M89,-84.91C89,-104.14 89,-131.8 89,-131.8 89,-131.8 189.97,-131.8 189.97,-131.8"/>
<polygon fill="black" stroke="black" points="189.97,-135.3 199.97,-131.8 189.97,-128.3 189.97,-135.3"/>
</g>
<!-- MaterialModule -->
<g id="node3" class="node">
<title>MaterialModule</title>
<polygon fill="#8dd3c7" stroke="black" points="455.47,-84.8 452.47,-88.8 431.47,-88.8 428.47,-84.8 348.53,-84.8 348.53,-48.8 455.47,-48.8 455.47,-84.8"/>
<text text-anchor="middle" x="402" y="-62.6" font-family="Times,serif" font-size="14.00">MaterialModule</text>
</g>
<!-- MaterialModule&#45;&gt;VendingModule -->
<g id="edge2" class="edge">
<title>MaterialModule&#45;&gt;VendingModule</title>
<path fill="none" stroke="black" d="M402,-84.91C402,-104.14 402,-131.8 402,-131.8 402,-131.8 317.85,-131.8 317.85,-131.8"/>
<polygon fill="black" stroke="black" points="317.85,-128.3 307.85,-131.8 317.85,-135.3 317.85,-128.3"/>
</g>
<!-- VendingRoutingModule -->
<g id="node4" class="node">
<title>VendingRoutingModule</title>
<polygon fill="#8dd3c7" stroke="black" points="330.38,-84.8 327.38,-88.8 306.38,-88.8 303.38,-84.8 177.62,-84.8 177.62,-48.8 330.38,-48.8 330.38,-84.8"/>
<text text-anchor="middle" x="254" y="-62.6" font-family="Times,serif" font-size="14.00">VendingRoutingModule</text>
</g>
<!-- VendingRoutingModule&#45;&gt;VendingModule -->
<g id="edge3" class="edge">
<title>VendingRoutingModule&#45;&gt;VendingModule</title>
<path fill="none" stroke="black" d="M254,-84.91C254,-84.91 254,-103.79 254,-103.79"/>
<polygon fill="black" stroke="black" points="250.5,-103.79 254,-113.79 257.5,-103.79 250.5,-103.79"/>
</g>
</g>
</svg>
