<?xml version="1.0" encoding="UTF-8" standalone="no"?>
<!DOCTYPE svg PUBLIC "-//W3C//DTD SVG 1.1//EN"
 "http://www.w3.org/Graphics/SVG/1.1/DTD/svg11.dtd">
<!-- Generated by graphviz version 2.47.3 (20210619.1520)
 -->
<!-- Title: dependencies Pages: 1 -->
<svg width="2079pt" height="247pt"
 viewBox="0.00 0.00 2079.00 246.80" xmlns="http://www.w3.org/2000/svg" xmlns:xlink="http://www.w3.org/1999/xlink">
<g id="graph0" class="graph" transform="scale(1 1) rotate(0) translate(4 242.8)">
<title>dependencies</title>
<polygon fill="white" stroke="transparent" points="-4,4 -4,-242.8 2075,-242.8 2075,4 -4,4"/>
<text text-anchor="middle" x="1035.5" y="-8.2" font-family="sans-serif" font-size="14.00">dependencies</text>
<g id="clust1" class="cluster">
<title>cluster_AppModule</title>
<polygon fill="none" stroke="black" stroke-dasharray="1,5" points="8,-32.8 8,-230.8 2063,-230.8 2063,-32.8 8,-32.8"/>
</g>
<g id="clust6" class="cluster">
<title>cluster_AppModule_imports</title>
<polygon fill="none" stroke="black" points="1669,-40.8 1669,-92.8 2055,-92.8 2055,-40.8 1669,-40.8"/>
</g>
<g id="clust8" class="cluster">
<title>cluster_AppModule_bootstrap</title>
<polygon fill="none" stroke="black" points="1081,-170.8 1081,-222.8 1205,-222.8 1205,-170.8 1081,-170.8"/>
</g>
<g id="clust2" class="cluster">
<title>cluster_AppModule_declarations</title>
<polygon fill="none" stroke="black" points="1213,-40.8 1213,-92.8 1661,-92.8 1661,-40.8 1213,-40.8"/>
</g>
<g id="clust9" class="cluster">
<title>cluster_AppModule_providers</title>
<polygon fill="none" stroke="black" points="16,-40.8 16,-92.8 1205,-92.8 1205,-40.8 16,-40.8"/>
</g>
<!-- AppComponent -->
<g id="node1" class="node">
<title>AppComponent</title>
<polygon fill="#ffffb3" stroke="black" points="1652.94,-84.8 1547.06,-84.8 1547.06,-48.8 1652.94,-48.8 1652.94,-84.8"/>
<text text-anchor="middle" x="1600" y="-62.6" font-family="Times,serif" font-size="14.00">AppComponent</text>
</g>
<!-- AppModule -->
<g id="node4" class="node">
<title>AppModule</title>
<polygon fill="#8dd3c7" stroke="black" points="1184.66,-149.8 1181.66,-153.8 1160.66,-153.8 1157.66,-149.8 1101.34,-149.8 1101.34,-113.8 1184.66,-113.8 1184.66,-149.8"/>
<text text-anchor="middle" x="1143" y="-127.6" font-family="Times,serif" font-size="14.00">AppModule</text>
</g>
<!-- AppComponent&#45;&gt;AppModule -->
<g id="edge1" class="edge">
<title>AppComponent&#45;&gt;AppModule</title>
<path fill="none" stroke="black" d="M1600,-85.02C1600,-103.63 1600,-129.8 1600,-129.8 1600,-129.8 1194.77,-129.8 1194.77,-129.8"/>
<polygon fill="black" stroke="black" points="1194.77,-126.3 1184.77,-129.8 1194.77,-133.3 1194.77,-126.3"/>
</g>
<!-- AppFooterComponent -->
<g id="node2" class="node">
<title>AppFooterComponent</title>
<polygon fill="#ffffb3" stroke="black" points="1528.99,-84.8 1387.01,-84.8 1387.01,-48.8 1528.99,-48.8 1528.99,-84.8"/>
<text text-anchor="middle" x="1458" y="-62.6" font-family="Times,serif" font-size="14.00">AppFooterComponent</text>
</g>
<!-- AppFooterComponent&#45;&gt;AppModule -->
<g id="edge2" class="edge">
<title>AppFooterComponent&#45;&gt;AppModule</title>
<path fill="none" stroke="black" d="M1458,-84.83C1458,-101.86 1458,-124.8 1458,-124.8 1458,-124.8 1194.83,-124.8 1194.83,-124.8"/>
<polygon fill="black" stroke="black" points="1194.83,-121.3 1184.83,-124.8 1194.83,-128.3 1194.83,-121.3"/>
</g>
<!-- AppNavBarComponent -->
<g id="node3" class="node">
<title>AppNavBarComponent</title>
<polygon fill="#ffffb3" stroke="black" points="1369.47,-84.8 1220.53,-84.8 1220.53,-48.8 1369.47,-48.8 1369.47,-84.8"/>
<text text-anchor="middle" x="1295" y="-62.6" font-family="Times,serif" font-size="14.00">AppNavBarComponent</text>
</g>
<!-- AppNavBarComponent&#45;&gt;AppModule -->
<g id="edge3" class="edge">
<title>AppNavBarComponent&#45;&gt;AppModule</title>
<path fill="none" stroke="black" d="M1295,-85.04C1295,-100.37 1295,-119.8 1295,-119.8 1295,-119.8 1194.94,-119.8 1194.94,-119.8"/>
<polygon fill="black" stroke="black" points="1194.94,-116.3 1184.94,-119.8 1194.94,-123.3 1194.94,-116.3"/>
</g>
<!-- AppComponent  -->
<g id="node8" class="node">
<title>AppComponent </title>
<polygon fill="#80b1d3" stroke="black" points="1197.44,-214.8 1088.56,-214.8 1088.56,-178.8 1197.44,-178.8 1197.44,-214.8"/>
<text text-anchor="middle" x="1143" y="-192.6" font-family="Times,serif" font-size="14.00">AppComponent </text>
</g>
<!-- AppModule&#45;&gt;AppComponent  -->
<g id="edge7" class="edge">
<title>AppModule&#45;&gt;AppComponent </title>
<path fill="none" stroke="black" stroke-dasharray="1,5" d="M1143,-149.91C1143,-149.91 1143,-168.79 1143,-168.79"/>
<polygon fill="black" stroke="black" points="1139.5,-168.79 1143,-178.79 1146.5,-168.79 1139.5,-168.79"/>
</g>
<!-- AppRoutingModule -->
<g id="node5" class="node">
<title>AppRoutingModule</title>
<polygon fill="#8dd3c7" stroke="black" points="2047.27,-84.8 2044.27,-88.8 2023.27,-88.8 2020.27,-84.8 1918.73,-84.8 1918.73,-48.8 2047.27,-48.8 2047.27,-84.8"/>
<text text-anchor="middle" x="1983" y="-62.6" font-family="Times,serif" font-size="14.00">AppRoutingModule</text>
</g>
<!-- AppRoutingModule&#45;&gt;AppModule -->
<g id="edge4" class="edge">
<title>AppRoutingModule&#45;&gt;AppModule</title>
<path fill="none" stroke="black" d="M1983,-84.89C1983,-107.93 1983,-144.8 1983,-144.8 1983,-144.8 1194.94,-144.8 1194.94,-144.8"/>
<polygon fill="black" stroke="black" points="1194.94,-141.3 1184.94,-144.8 1194.94,-148.3 1194.94,-141.3"/>
</g>
<!-- AppStoreModule -->
<g id="node6" class="node">
<title>AppStoreModule</title>
<polygon fill="#8dd3c7" stroke="black" points="1900.7,-84.8 1897.7,-88.8 1876.7,-88.8 1873.7,-84.8 1787.3,-84.8 1787.3,-48.8 1900.7,-48.8 1900.7,-84.8"/>
<text text-anchor="middle" x="1844" y="-62.6" font-family="Times,serif" font-size="14.00">AppStoreModule</text>
</g>
<!-- AppStoreModule&#45;&gt;AppModule -->
<g id="edge5" class="edge">
<title>AppStoreModule&#45;&gt;AppModule</title>
<path fill="none" stroke="black" d="M1844,-84.84C1844,-106.46 1844,-139.8 1844,-139.8 1844,-139.8 1194.75,-139.8 1194.75,-139.8"/>
<polygon fill="black" stroke="black" points="1194.75,-136.3 1184.75,-139.8 1194.75,-143.3 1194.75,-136.3"/>
</g>
<!-- LoginModule -->
<g id="node7" class="node">
<title>LoginModule</title>
<polygon fill="#8dd3c7" stroke="black" points="1769.49,-84.8 1766.49,-88.8 1745.49,-88.8 1742.49,-84.8 1676.51,-84.8 1676.51,-48.8 1769.49,-48.8 1769.49,-84.8"/>
<text text-anchor="middle" x="1723" y="-62.6" font-family="Times,serif" font-size="14.00">LoginModule</text>
</g>
<!-- LoginModule&#45;&gt;AppModule -->
<g id="edge6" class="edge">
<title>LoginModule&#45;&gt;AppModule</title>
<path fill="none" stroke="black" d="M1723,-85.02C1723,-105.17 1723,-134.8 1723,-134.8 1723,-134.8 1194.71,-134.8 1194.71,-134.8"/>
<polygon fill="black" stroke="black" points="1194.71,-131.3 1184.71,-134.8 1194.71,-138.3 1194.71,-131.3"/>
</g>
<!-- ApiService -->
<g id="node9" class="node">
<title>ApiService</title>
<ellipse fill="#fdb462" stroke="black" cx="1143" cy="-66.8" rx="54.45" ry="18"/>
<text text-anchor="middle" x="1143" y="-62.6" font-family="Times,serif" font-size="14.00">ApiService</text>
</g>
<!-- ApiService&#45;&gt;AppModule -->
<g id="edge8" class="edge">
<title>ApiService&#45;&gt;AppModule</title>
<path fill="none" stroke="black" d="M1143,-84.91C1143,-84.91 1143,-103.79 1143,-103.79"/>
<polygon fill="black" stroke="black" points="1139.5,-103.79 1143,-113.79 1146.5,-103.79 1139.5,-103.79"/>
</g>
<!-- AppClientHttpInterceptor -->
<g id="node10" class="node">
<title>AppClientHttpInterceptor</title>
<ellipse fill="#fdb462" stroke="black" cx="960" cy="-66.8" rx="110.59" ry="18"/>
<text text-anchor="middle" x="960" y="-62.6" font-family="Times,serif" font-size="14.00">AppClientHttpInterceptor</text>
</g>
<!-- AppClientHttpInterceptor&#45;&gt;AppModule -->
<g id="edge9" class="edge">
<title>AppClientHttpInterceptor&#45;&gt;AppModule</title>
<path fill="none" stroke="black" d="M960,-85.04C960,-100.37 960,-119.8 960,-119.8 960,-119.8 1091.02,-119.8 1091.02,-119.8"/>
<polygon fill="black" stroke="black" points="1091.02,-123.3 1101.02,-119.8 1091.02,-116.3 1091.02,-123.3"/>
</g>
<!-- AppErrorInterceptor -->
<g id="node11" class="node">
<title>AppErrorInterceptor</title>
<ellipse fill="#fdb462" stroke="black" cx="741" cy="-66.8" rx="90.29" ry="18"/>
<text text-anchor="middle" x="741" y="-62.6" font-family="Times,serif" font-size="14.00">AppErrorInterceptor</text>
</g>
<!-- AppErrorInterceptor&#45;&gt;AppModule -->
<g id="edge10" class="edge">
<title>AppErrorInterceptor&#45;&gt;AppModule</title>
<path fill="none" stroke="black" d="M741,-84.83C741,-101.86 741,-124.8 741,-124.8 741,-124.8 1091.12,-124.8 1091.12,-124.8"/>
<polygon fill="black" stroke="black" points="1091.12,-128.3 1101.12,-124.8 1091.12,-121.3 1091.12,-128.3"/>
</g>
<!-- AppHttpHeaders -->
<g id="node12" class="node">
<title>AppHttpHeaders</title>
<ellipse fill="#fdb462" stroke="black" cx="556" cy="-66.8" rx="76.42" ry="18"/>
<text text-anchor="middle" x="556" y="-62.6" font-family="Times,serif" font-size="14.00">AppHttpHeaders</text>
</g>
<!-- AppHttpHeaders&#45;&gt;AppModule -->
<g id="edge11" class="edge">
<title>AppHttpHeaders&#45;&gt;AppModule</title>
<path fill="none" stroke="black" d="M556,-85.02C556,-103.63 556,-129.8 556,-129.8 556,-129.8 1091.25,-129.8 1091.25,-129.8"/>
<polygon fill="black" stroke="black" points="1091.26,-133.3 1101.25,-129.8 1091.25,-126.3 1091.26,-133.3"/>
</g>
<!-- ProductService -->
<g id="node13" class="node">
<title>ProductService</title>
<ellipse fill="#fdb462" stroke="black" cx="392" cy="-66.8" rx="70.06" ry="18"/>
<text text-anchor="middle" x="392" y="-62.6" font-family="Times,serif" font-size="14.00">ProductService</text>
</g>
<!-- ProductService&#45;&gt;AppModule -->
<g id="edge12" class="edge">
<title>ProductService&#45;&gt;AppModule</title>
<path fill="none" stroke="black" d="M392,-85.02C392,-105.17 392,-134.8 392,-134.8 392,-134.8 1091.28,-134.8 1091.28,-134.8"/>
<polygon fill="black" stroke="black" points="1091.28,-138.3 1101.28,-134.8 1091.28,-131.3 1091.28,-138.3"/>
</g>
<!-- UserService -->
<g id="node14" class="node">
<title>UserService</title>
<ellipse fill="#fdb462" stroke="black" cx="246" cy="-66.8" rx="58.44" ry="18"/>
<text text-anchor="middle" x="246" y="-62.6" font-family="Times,serif" font-size="14.00">UserService</text>
</g>
<!-- UserService&#45;&gt;AppModule -->
<g id="edge13" class="edge">
<title>UserService&#45;&gt;AppModule</title>
<path fill="none" stroke="black" d="M246,-84.84C246,-106.46 246,-139.8 246,-139.8 246,-139.8 1091.24,-139.8 1091.24,-139.8"/>
<polygon fill="black" stroke="black" points="1091.24,-143.3 1101.24,-139.8 1091.24,-136.3 1091.24,-143.3"/>
</g>
<!-- VendingService -->
<g id="node15" class="node">
<title>VendingService</title>
<ellipse fill="#fdb462" stroke="black" cx="97" cy="-66.8" rx="73.5" ry="18"/>
<text text-anchor="middle" x="97" y="-62.6" font-family="Times,serif" font-size="14.00">VendingService</text>
</g>
<!-- VendingService&#45;&gt;AppModule -->
<g id="edge14" class="edge">
<title>VendingService&#45;&gt;AppModule</title>
<path fill="none" stroke="black" d="M97,-84.89C97,-107.93 97,-144.8 97,-144.8 97,-144.8 1091.03,-144.8 1091.03,-144.8"/>
<polygon fill="black" stroke="black" points="1091.03,-148.3 1101.03,-144.8 1091.03,-141.3 1091.03,-148.3"/>
</g>
</g>
</svg>
