<?xml version="1.0" encoding="UTF-8" standalone="no"?>
<!DOCTYPE svg PUBLIC "-//W3C//DTD SVG 1.1//EN"
 "http://www.w3.org/Graphics/SVG/1.1/DTD/svg11.dtd">
<!-- Generated by graphviz version 2.47.3 (20210619.1520)
 -->
<!-- Title: dependencies Pages: 1 -->
<svg width="733pt" height="174pt"
 viewBox="0.00 0.00 733.00 173.80" xmlns="http://www.w3.org/2000/svg" xmlns:xlink="http://www.w3.org/1999/xlink">
<g id="graph0" class="graph" transform="scale(1 1) rotate(0) translate(4 169.8)">
<title>dependencies</title>
<polygon fill="white" stroke="transparent" points="-4,4 -4,-169.8 729,-169.8 729,4 -4,4"/>
<text text-anchor="middle" x="362.5" y="-8.2" font-family="sans-serif" font-size="14.00">dependencies</text>
<g id="clust1" class="cluster">
<title>cluster_AppStoreModule</title>
<polygon fill="none" stroke="black" stroke-dasharray="1,5" points="8,-32.8 8,-157.8 717,-157.8 717,-32.8 8,-32.8"/>
</g>
<g id="clust6" class="cluster">
<title>cluster_AppStoreModule_providers</title>
<polygon fill="none" stroke="black" points="164,-40.8 164,-92.8 709,-92.8 709,-40.8 164,-40.8"/>
</g>
<g id="clust3" class="cluster">
<title>cluster_AppStoreModule_imports</title>
<polygon fill="none" stroke="black" points="16,-40.8 16,-92.8 156,-92.8 156,-40.8 16,-40.8"/>
</g>
<!-- EntityStoreModule -->
<g id="node1" class="node">
<title>EntityStoreModule</title>
<polygon fill="#8dd3c7" stroke="black" points="147.82,-84.8 144.82,-88.8 123.82,-88.8 120.82,-84.8 24.18,-84.8 24.18,-48.8 147.82,-48.8 147.82,-84.8"/>
<text text-anchor="middle" x="86" y="-62.6" font-family="Times,serif" font-size="14.00">EntityStoreModule</text>
</g>
<!-- AppStoreModule -->
<g id="node2" class="node">
<title>AppStoreModule</title>
<polygon fill="#8dd3c7" stroke="black" points="436.7,-149.8 433.7,-153.8 412.7,-153.8 409.7,-149.8 323.3,-149.8 323.3,-113.8 436.7,-113.8 436.7,-149.8"/>
<text text-anchor="middle" x="380" y="-127.6" font-family="Times,serif" font-size="14.00">AppStoreModule</text>
</g>
<!-- EntityStoreModule&#45;&gt;AppStoreModule -->
<g id="edge1" class="edge">
<title>EntityStoreModule&#45;&gt;AppStoreModule</title>
<path fill="none" stroke="black" d="M86,-84.91C86,-104.14 86,-131.8 86,-131.8 86,-131.8 313.31,-131.8 313.31,-131.8"/>
<polygon fill="black" stroke="black" points="313.31,-135.3 323.31,-131.8 313.31,-128.3 313.31,-135.3"/>
</g>
<!-- DepositEffects -->
<g id="node3" class="node">
<title>DepositEffects</title>
<ellipse fill="#fdb462" stroke="black" cx="633" cy="-66.8" rx="68.33" ry="18"/>
<text text-anchor="middle" x="633" y="-62.6" font-family="Times,serif" font-size="14.00">DepositEffects</text>
</g>
<!-- DepositEffects&#45;&gt;AppStoreModule -->
<g id="edge2" class="edge">
<title>DepositEffects&#45;&gt;AppStoreModule</title>
<path fill="none" stroke="black" d="M633,-84.91C633,-104.14 633,-131.8 633,-131.8 633,-131.8 446.78,-131.8 446.78,-131.8"/>
<polygon fill="black" stroke="black" points="446.78,-128.3 436.78,-131.8 446.78,-135.3 446.78,-128.3"/>
</g>
<!-- ProductEffects -->
<g id="node4" class="node">
<title>ProductEffects</title>
<ellipse fill="#fdb462" stroke="black" cx="478" cy="-66.8" rx="68.33" ry="18"/>
<text text-anchor="middle" x="478" y="-62.6" font-family="Times,serif" font-size="14.00">ProductEffects</text>
</g>
<!-- ProductEffects&#45;&gt;AppStoreModule -->
<g id="edge3" class="edge">
<title>ProductEffects&#45;&gt;AppStoreModule</title>
<path fill="none" stroke="black" d="M423.09,-77.83C423.09,-77.83 423.09,-103.58 423.09,-103.58"/>
<polygon fill="black" stroke="black" points="419.59,-103.58 423.09,-113.58 426.59,-103.58 419.59,-103.58"/>
</g>
<!-- ProductPaginationEffects -->
<g id="node5" class="node">
<title>ProductPaginationEffects</title>
<ellipse fill="#fdb462" stroke="black" cx="282" cy="-66.8" rx="109.95" ry="18"/>
<text text-anchor="middle" x="282" y="-62.6" font-family="Times,serif" font-size="14.00">ProductPaginationEffects</text>
</g>
<!-- ProductPaginationEffects&#45;&gt;AppStoreModule -->
<g id="edge4" class="edge">
<title>ProductPaginationEffects&#45;&gt;AppStoreModule</title>
<path fill="none" stroke="black" d="M357.56,-79.95C357.56,-79.95 357.56,-103.49 357.56,-103.49"/>
<polygon fill="black" stroke="black" points="354.06,-103.49 357.56,-113.49 361.06,-103.49 354.06,-103.49"/>
</g>
</g>
</svg>
